<svg width="38" height="38" viewBox="0 0 38 38" fill="none" xmlns="http://www.w3.org/2000/svg">
<g id="Group">
<path id="Vector" fill-rule="evenodd" clip-rule="evenodd" d="M3.03525 24.0641C3.6365 23.2242 3.81511 22.1631 3.67187 21.1392C3.47538 19.7195 3.47538 18.2795 3.67187 16.8598C3.81511 15.8359 3.6365 14.7766 3.03525 13.9349L1.95124 12.4176L1.92294 12.3787C1.45079 11.7191 1.05644 11.1656 0.762889 10.681C0.456959 10.1753 0.212923 9.66776 0.0962096 9.08773C-0.0850024 8.18883 -0.00837265 7.25701 0.317257 6.3998C0.529462 5.84452 0.853076 5.38475 1.23858 4.93558C1.60641 4.50763 2.0874 4.02663 2.66036 3.45368L2.69573 3.41831L3.41899 2.69504L3.45436 2.65967C4.02555 2.08849 4.50831 1.60572 4.93449 1.2379C5.38366 0.852391 5.84521 0.528778 6.39871 0.318341C7.25576 -0.00788042 8.18758 -0.0851236 9.08665 0.0955251C9.66844 0.212238 10.176 0.456274 10.6817 0.763972C11.1645 1.05575 11.7198 1.45187 12.3794 1.92226L12.4183 1.95055L13.9355 3.03457C14.7773 3.63582 15.8365 3.81443 16.8604 3.67296C18.2802 3.47651 19.7202 3.47651 21.1399 3.67296C22.1656 3.81443 23.2231 3.63582 24.0648 3.03457L25.5821 1.95055L25.6228 1.92226C26.2806 1.45187 26.8359 1.05575 27.3186 0.763972C27.8244 0.456274 28.3319 0.212238 28.9119 0.0955251C29.8116 -0.0854649 30.7441 -0.00821763 31.6016 0.318341C32.1551 0.528778 32.6167 0.852391 33.0641 1.2379C33.492 1.60572 33.9748 2.08672 34.546 2.65967L34.5814 2.69504L35.3064 3.42008L35.34 3.45368C35.913 4.02663 36.394 4.50763 36.7618 4.93558C37.1473 5.38475 37.4709 5.84452 37.6813 6.39803C38.0075 7.25508 38.0848 8.1869 37.9041 9.08596C37.7874 9.66953 37.5434 10.1753 37.2375 10.6828C36.9439 11.1656 36.5478 11.7191 36.0774 12.3787L36.0491 12.4176L34.9651 13.9349C34.3638 14.7766 34.1852 15.8359 34.3267 16.8598C34.5232 18.2795 34.5232 19.7195 34.3267 21.1392C34.1852 22.1649 34.3638 23.2224 34.9651 24.0641L36.0491 25.5814L36.0774 25.6221C36.5496 26.2817 36.9439 26.8352 37.2375 27.3179C37.5434 27.8237 37.7874 28.3312 37.9041 28.9113C38.0851 29.8109 38.0079 30.7434 37.6813 31.601C37.4709 32.1545 37.1473 32.616 36.7618 33.0652C36.394 33.4931 35.913 33.9741 35.3382 34.5471L35.3046 34.5824L34.5814 35.3039L34.546 35.3393C33.9748 35.9123 33.492 36.3933 33.0641 36.7611C32.6167 37.1466 32.1551 37.472 31.6016 37.6806C30.7448 38.0075 29.8129 38.0853 28.9137 37.9052C28.3301 37.7885 27.8244 37.5427 27.3169 37.2368C26.8359 36.945 26.2806 36.5471 25.6228 36.0785L25.5821 36.0484L24.0648 34.9662C23.2231 34.3649 22.1638 34.1846 21.1399 34.326C19.7202 34.5225 18.2802 34.5225 16.8604 34.326C15.8348 34.1846 14.7773 34.3649 13.9355 34.9662L12.4183 36.0502L12.3776 36.0767C11.7198 36.5489 11.1645 36.9432 10.6817 37.2368C10.176 37.5427 9.66844 37.7885 9.08842 37.9052C8.18878 38.0862 7.2563 38.009 6.39871 37.6824C5.84521 37.4702 5.38366 37.1466 4.93626 36.7611C4.42521 36.3047 3.93034 35.8305 3.45259 35.3393L3.41722 35.3039L2.69573 34.5807L2.66036 34.5471C2.16923 34.0699 1.69501 33.5756 1.23858 33.0652C0.853076 32.616 0.529463 32.1545 0.319025 31.601C-0.0071959 30.7439 -0.0844391 29.8121 0.0962096 28.913C0.212923 28.3312 0.456959 27.8237 0.762889 27.3179C1.05644 26.8352 1.45256 26.2817 1.92294 25.6203L1.95124 25.5814L3.03525 24.0659V24.0641ZM19.0002 24.3046C20.4072 24.3046 21.7566 23.7457 22.7515 22.7508C23.7464 21.7559 24.3053 20.4065 24.3053 18.9995C24.3053 17.5925 23.7464 16.2431 22.7515 15.2482C21.7566 14.2533 20.4072 13.6944 19.0002 13.6944C17.5932 13.6944 16.2438 14.2533 15.2489 15.2482C14.254 16.2431 13.695 17.5925 13.695 18.9995C13.695 20.4065 14.254 21.7559 15.2489 22.7508C16.2438 23.7457 17.5932 24.3046 19.0002 24.3046Z" fill="url(#paint0_linear_102_417)"/>
</g>
<defs>
<linearGradient id="paint0_linear_102_417" x1="25.722" y1="15.042" x2="34.1516" y2="15.0569" gradientUnits="userSpaceOnUse">
<stop stop-color="#0085FE"/>
<stop offset="1" stop-color="#00B68D"/>
</linearGradient>
</defs>
</svg>
