<svg width="1007" height="633" viewBox="0 0 1007 633" fill="none" xmlns="http://www.w3.org/2000/svg">
<path fill-rule="evenodd" clip-rule="evenodd" d="M87.5066 424.73C87.4423 424.348 87.3939 423.971 87.3626 423.594C87.3154 423.028 87.3446 422.458 87.3279 421.892C87.3206 421.652 87.2919 421.027 87.3034 420.937C87.4084 420.152 88.0414 420.032 88.2266 420.011C88.3161 419.998 89.2359 419.895 89.4343 420.915C89.6777 422.162 89.7557 423.418 89.6696 424.648C89.8706 425.694 90.2143 426.735 90.6682 427.678C92.4742 431.428 95.9156 431.792 99.6441 431.758C100.218 431.75 100.694 432.2 100.724 432.77C100.754 433.344 100.327 433.841 99.756 433.892C97.6719 434.094 93.9741 435.765 92.6957 437.505C92.4283 437.87 92.2727 438.748 92.067 439.61C91.7799 440.805 91.4383 441.988 91.0556 442.485C90.9981 442.562 90.3 443.351 90.0917 443.467C89.5911 443.741 89.1904 443.582 88.9629 443.437C88.7353 443.291 88.4777 443.004 88.3749 442.528C88.2673 442.031 88.3581 441.011 88.3414 440.792C88.2806 440 88.122 438.444 87.7984 437.107C87.624 436.387 87.438 435.722 87.1303 435.392C85.9911 434.171 84.1697 434.351 82.6359 434.552C82.4597 434.574 82.2836 434.6 82.1079 434.621C81.4834 434.805 80.8204 434.942 80.1197 435.024C79.0616 435.148 78.8876 434.175 78.8781 434.111C78.8584 433.97 78.7851 433.241 79.5827 432.95C79.6697 432.92 80.3117 432.778 80.559 432.722C80.9036 432.645 81.252 432.585 81.6017 432.53C85.2141 431.407 87.1761 428.252 87.5066 424.73ZM88.7464 428.625C90.1101 431.445 92.1797 432.808 94.6329 433.425H94.6324C93.1007 434.227 91.7074 435.23 90.969 436.237C90.6887 436.618 90.4316 437.385 90.1997 438.247C90.0741 437.445 89.9044 436.592 89.6803 435.864C89.4253 435.032 89.082 434.342 88.6989 433.931C87.9591 433.138 87.0308 432.697 86.0327 432.478C87.2276 431.42 88.1336 430.1 88.7464 428.625Z" fill="black"/>
<rect width="262.661" height="142.568" rx="26" transform="matrix(-0.997964 0.0637792 0.0637792 0.997964 400.225 196.633)" fill="#1ABCFE"/>
<path d="M145.02 172V96.4H163.38V155.8H197.076V172H145.02ZM234.211 173.08C227.875 173.08 222.367 171.82 217.687 169.3C213.007 166.708 209.371 163.216 206.779 158.824C204.187 154.36 202.891 149.284 202.891 143.596C202.891 139.204 203.611 135.172 205.051 131.5C206.491 127.828 208.507 124.66 211.099 121.996C213.691 119.26 216.751 117.172 220.279 115.732C223.879 114.22 227.803 113.464 232.051 113.464C236.083 113.464 239.755 114.184 243.067 115.624C246.451 117.064 249.367 119.08 251.815 121.672C254.263 124.264 256.135 127.324 257.431 130.852C258.727 134.38 259.303 138.232 259.159 142.408L259.051 147.052H213.367L210.883 137.332H245.011L243.175 139.384V137.224C243.031 135.424 242.455 133.84 241.447 132.472C240.511 131.032 239.251 129.916 237.667 129.124C236.083 128.332 234.283 127.936 232.267 127.936C229.459 127.936 227.047 128.512 225.031 129.664C223.087 130.744 221.611 132.364 220.603 134.524C219.595 136.612 219.091 139.204 219.091 142.3C219.091 145.468 219.739 148.24 221.035 150.616C222.403 152.92 224.347 154.72 226.867 156.016C229.459 157.312 232.519 157.96 236.047 157.96C238.495 157.96 240.655 157.6 242.527 156.88C244.471 156.16 246.559 154.936 248.791 153.208L256.891 164.656C254.659 166.6 252.283 168.184 249.763 169.408C247.243 170.632 244.651 171.532 241.987 172.108C239.395 172.756 236.803 173.08 234.211 173.08ZM274.92 172V100.18H292.2V172H274.92ZM264.768 129.772V114.652H303.324V129.772H264.768ZM310.283 124.912L312.551 96.4H330.263L321.191 124.912H310.283ZM359.742 173.08C354.126 173.08 349.158 172.18 344.838 170.38C340.59 168.58 337.206 166.168 334.686 163.144L345.162 154.072C347.394 156.304 349.914 157.96 352.722 159.04C355.53 160.048 358.194 160.552 360.714 160.552C361.722 160.552 362.622 160.444 363.414 160.228C364.206 160.012 364.854 159.724 365.358 159.364C365.934 158.932 366.366 158.464 366.654 157.96C366.942 157.384 367.086 156.736 367.086 156.016C367.086 154.576 366.438 153.46 365.142 152.668C364.494 152.308 363.414 151.876 361.902 151.372C360.39 150.868 358.446 150.292 356.07 149.644C352.686 148.78 349.734 147.772 347.214 146.62C344.766 145.396 342.75 143.992 341.166 142.408C339.726 140.896 338.61 139.24 337.818 137.44C337.026 135.568 336.63 133.48 336.63 131.176C336.63 128.512 337.242 126.1 338.466 123.94C339.762 121.78 341.454 119.908 343.542 118.324C345.702 116.74 348.15 115.552 350.886 114.76C353.694 113.896 356.574 113.464 359.526 113.464C362.694 113.464 365.718 113.824 368.598 114.544C371.478 115.264 374.142 116.272 376.59 117.568C379.11 118.864 381.342 120.412 383.286 122.212L374.214 132.364C372.918 131.14 371.442 130.06 369.786 129.124C368.202 128.116 366.546 127.324 364.818 126.748C363.09 126.172 361.506 125.884 360.066 125.884C358.986 125.884 358.014 125.992 357.15 126.208C356.358 126.352 355.674 126.64 355.098 127.072C354.522 127.432 354.09 127.9 353.802 128.476C353.514 128.98 353.37 129.592 353.37 130.312C353.37 131.032 353.55 131.716 353.91 132.364C354.342 133.012 354.918 133.552 355.638 133.984C356.358 134.416 357.51 134.92 359.094 135.496C360.678 136 362.838 136.648 365.574 137.44C368.958 138.376 371.874 139.42 374.322 140.572C376.77 141.724 378.714 143.092 380.154 144.676C381.306 145.9 382.17 147.34 382.746 148.996C383.322 150.58 383.61 152.308 383.61 154.18C383.61 157.852 382.566 161.128 380.478 164.008C378.462 166.816 375.654 169.048 372.054 170.704C368.454 172.288 364.35 173.08 359.742 173.08ZM462.929 173.188C460.337 173.188 457.853 172.828 455.477 172.108C453.101 171.388 450.941 170.416 448.997 169.192C447.125 167.968 445.541 166.564 444.245 164.98C443.021 163.324 442.193 161.632 441.761 159.904L445.541 158.608L444.569 171.892H428.477V92.08H445.865V128.368L442.301 127.072C442.733 125.2 443.561 123.472 444.785 121.888C446.009 120.232 447.557 118.792 449.429 117.568C451.301 116.272 453.353 115.264 455.585 114.544C457.817 113.824 460.121 113.464 462.497 113.464C467.465 113.464 471.857 114.76 475.673 117.352C479.561 119.872 482.621 123.4 484.853 127.936C487.085 132.4 488.201 137.512 488.201 143.272C488.201 149.104 487.085 154.288 484.853 158.824C482.693 163.288 479.705 166.816 475.889 169.408C472.073 171.928 467.753 173.188 462.929 173.188ZM458.393 158.608C460.985 158.608 463.253 157.96 465.197 156.664C467.141 155.368 468.617 153.604 469.625 151.372C470.705 149.068 471.245 146.368 471.245 143.272C471.245 140.248 470.705 137.584 469.625 135.28C468.617 132.976 467.141 131.212 465.197 129.988C463.253 128.764 460.985 128.152 458.393 128.152C455.729 128.152 453.425 128.764 451.481 129.988C449.537 131.212 448.025 132.976 446.945 135.28C445.865 137.584 445.325 140.248 445.325 143.272C445.325 146.368 445.865 149.068 446.945 151.372C448.025 153.604 449.537 155.368 451.481 156.664C453.425 157.96 455.729 158.608 458.393 158.608ZM499.563 172V114.652H515.979L516.735 133.336L513.495 129.772C514.359 126.676 515.763 123.904 517.707 121.456C519.723 119.008 522.063 117.064 524.727 115.624C527.391 114.184 530.235 113.464 533.259 113.464C534.555 113.464 535.743 113.572 536.823 113.788C537.975 114.004 539.019 114.256 539.955 114.544L535.203 133.66C534.411 133.156 533.331 132.76 531.963 132.472C530.667 132.112 529.299 131.932 527.859 131.932C526.275 131.932 524.799 132.22 523.431 132.796C522.063 133.3 520.911 134.056 519.975 135.064C519.039 136.072 518.283 137.26 517.707 138.628C517.203 139.996 516.951 141.544 516.951 143.272V172H499.563ZM549.683 172V114.652H566.963V172H549.683ZM558.323 103.312C555.083 103.312 552.527 102.556 550.655 101.044C548.855 99.46 547.955 97.228 547.955 94.348C547.955 91.756 548.891 89.632 550.763 87.976C552.635 86.32 555.155 85.492 558.323 85.492C561.563 85.492 564.083 86.284 565.883 87.868C567.683 89.38 568.583 91.54 568.583 94.348C568.583 97.012 567.647 99.172 565.775 100.828C563.975 102.484 561.491 103.312 558.323 103.312ZM609.443 196.84C604.763 196.84 600.083 196.156 595.403 194.788C590.795 193.42 587.051 191.656 584.171 189.496L590.219 177.4C591.731 178.408 593.387 179.272 595.187 179.992C597.059 180.784 599.003 181.396 601.019 181.828C603.035 182.26 605.087 182.476 607.175 182.476C610.847 182.476 613.835 181.936 616.139 180.856C618.443 179.776 620.171 178.12 621.323 175.888C622.475 173.728 623.051 170.992 623.051 167.68V158.068L626.399 158.608C625.895 160.984 624.635 163.144 622.619 165.088C620.675 167.032 618.263 168.616 615.383 169.84C612.503 170.992 609.443 171.568 606.203 171.568C601.019 171.568 596.375 170.38 592.271 168.004C588.239 165.556 585.035 162.208 582.659 157.96C580.355 153.64 579.203 148.672 579.203 143.056C579.203 137.296 580.355 132.22 582.659 127.828C584.963 123.364 588.131 119.872 592.163 117.352C596.195 114.76 600.731 113.464 605.771 113.464C607.931 113.464 609.983 113.716 611.927 114.22C613.943 114.724 615.779 115.408 617.435 116.272C619.163 117.064 620.675 118.036 621.971 119.188C623.339 120.268 624.419 121.456 625.211 122.752C626.075 124.048 626.651 125.38 626.939 126.748L623.375 127.612L624.023 114.652H640.439V167.356C640.439 172.036 639.719 176.176 638.279 179.776C636.911 183.448 634.859 186.544 632.123 189.064C629.459 191.656 626.219 193.6 622.403 194.896C618.587 196.192 614.267 196.84 609.443 196.84ZM609.875 158.176C612.683 158.176 615.095 157.564 617.111 156.34C619.199 155.044 620.783 153.28 621.863 151.048C623.015 148.816 623.591 146.188 623.591 143.164C623.591 140.14 623.015 137.512 621.863 135.28C620.783 132.976 619.199 131.212 617.111 129.988C615.095 128.692 612.683 128.044 609.875 128.044C607.139 128.044 604.763 128.692 602.747 129.988C600.731 131.212 599.147 132.976 597.995 135.28C596.915 137.512 596.375 140.14 596.375 143.164C596.375 146.188 596.915 148.816 597.995 151.048C599.147 153.28 600.731 155.044 602.747 156.34C604.763 157.564 607.139 158.176 609.875 158.176ZM655.445 172V92.08H672.401V126.316L668.945 127.612C669.737 125.02 671.141 122.68 673.157 120.592C675.245 118.432 677.729 116.704 680.609 115.408C683.489 114.112 686.513 113.464 689.681 113.464C694.001 113.464 697.637 114.364 700.589 116.164C703.541 117.892 705.773 120.52 707.285 124.048C708.797 127.504 709.553 131.752 709.553 136.792V172H692.165V138.196C692.165 135.892 691.841 133.984 691.193 132.472C690.545 130.96 689.537 129.844 688.169 129.124C686.873 128.332 685.253 127.972 683.309 128.044C681.797 128.044 680.393 128.296 679.097 128.8C677.801 129.232 676.685 129.916 675.749 130.852C674.813 131.716 674.057 132.724 673.481 133.876C672.977 135.028 672.725 136.288 672.725 137.656V172H664.193C662.177 172 660.449 172 659.009 172C657.569 172 656.381 172 655.445 172ZM728.752 172V100.18H746.032V172H728.752ZM718.6 129.772V114.652H757.156V129.772H718.6ZM793.828 173.08C787.492 173.08 781.984 171.82 777.304 169.3C772.624 166.708 768.988 163.216 766.396 158.824C763.804 154.36 762.508 149.284 762.508 143.596C762.508 139.204 763.228 135.172 764.668 131.5C766.108 127.828 768.124 124.66 770.716 121.996C773.308 119.26 776.368 117.172 779.896 115.732C783.496 114.22 787.42 113.464 791.668 113.464C795.7 113.464 799.372 114.184 802.684 115.624C806.068 117.064 808.984 119.08 811.432 121.672C813.88 124.264 815.752 127.324 817.048 130.852C818.344 134.38 818.92 138.232 818.776 142.408L818.668 147.052H772.984L770.5 137.332H804.628L802.792 139.384V137.224C802.648 135.424 802.072 133.84 801.064 132.472C800.128 131.032 798.868 129.916 797.284 129.124C795.7 128.332 793.9 127.936 791.884 127.936C789.076 127.936 786.664 128.512 784.648 129.664C782.704 130.744 781.228 132.364 780.22 134.524C779.212 136.612 778.708 139.204 778.708 142.3C778.708 145.468 779.356 148.24 780.652 150.616C782.02 152.92 783.964 154.72 786.484 156.016C789.076 157.312 792.136 157.96 795.664 157.96C798.112 157.96 800.272 157.6 802.144 156.88C804.088 156.16 806.176 154.936 808.408 153.208L816.508 164.656C814.276 166.6 811.9 168.184 809.38 169.408C806.86 170.632 804.268 171.532 801.604 172.108C799.012 172.756 796.42 173.08 793.828 173.08ZM829.785 172V114.652H846.201L846.741 126.316L843.285 127.612C844.077 125.02 845.481 122.68 847.497 120.592C849.585 118.432 852.069 116.704 854.949 115.408C857.829 114.112 860.853 113.464 864.021 113.464C868.341 113.464 871.977 114.364 874.929 116.164C877.881 117.892 880.113 120.52 881.625 124.048C883.137 127.504 883.893 131.752 883.893 136.792V172H866.505V138.196C866.505 135.892 866.181 133.984 865.533 132.472C864.885 130.96 863.877 129.844 862.509 129.124C861.213 128.332 859.593 127.972 857.649 128.044C856.137 128.044 854.733 128.296 853.437 128.8C852.141 129.232 851.025 129.916 850.089 130.852C849.153 131.716 848.397 132.724 847.821 133.876C847.317 135.028 847.065 136.288 847.065 137.656V172H838.533C836.517 172 834.789 172 833.349 172C831.909 172 830.721 172 829.785 172ZM447.24 308V232.4H465.6V308H447.24ZM455.772 279.056V263.72H494.868V279.056H455.772ZM455.772 248.6V232.4H499.296V248.6H455.772ZM530.132 309.188C525.884 309.188 522.248 308.288 519.224 306.488C516.272 304.616 513.968 301.952 512.312 298.496C510.728 295.04 509.936 290.9 509.936 286.076V250.652H527.324V283.7C527.324 286.004 527.684 287.984 528.404 289.64C529.124 291.296 530.204 292.592 531.644 293.528C533.084 294.392 534.812 294.824 536.828 294.824C538.34 294.824 539.708 294.572 540.932 294.068C542.228 293.564 543.308 292.88 544.172 292.016C545.108 291.08 545.828 290.036 546.332 288.884C546.836 287.66 547.088 286.328 547.088 284.888V250.652H564.476V308H548.168L547.412 296.228L550.652 294.932C549.788 297.668 548.348 300.116 546.332 302.276C544.316 304.364 541.904 306.056 539.096 307.352C536.288 308.576 533.3 309.188 530.132 309.188ZM584.629 308V236.18H601.909V308H584.629ZM574.477 265.772V250.652H613.033V265.772H574.477ZM642.456 309.188C638.208 309.188 634.572 308.288 631.548 306.488C628.596 304.616 626.292 301.952 624.636 298.496C623.052 295.04 622.26 290.9 622.26 286.076V250.652H639.648V283.7C639.648 286.004 640.008 287.984 640.728 289.64C641.448 291.296 642.528 292.592 643.968 293.528C645.408 294.392 647.136 294.824 649.152 294.824C650.664 294.824 652.032 294.572 653.256 294.068C654.552 293.564 655.632 292.88 656.496 292.016C657.432 291.08 658.152 290.036 658.656 288.884C659.16 287.66 659.412 286.328 659.412 284.888V250.652H676.8V308H660.492L659.736 296.228L662.976 294.932C662.112 297.668 660.672 300.116 658.656 302.276C656.64 304.364 654.228 306.056 651.42 307.352C648.612 308.576 645.624 309.188 642.456 309.188ZM692.201 308V250.652H708.617L709.373 269.336L706.133 265.772C706.997 262.676 708.401 259.904 710.345 257.456C712.361 255.008 714.701 253.064 717.365 251.624C720.029 250.184 722.873 249.464 725.897 249.464C727.193 249.464 728.381 249.572 729.461 249.788C730.613 250.004 731.657 250.256 732.593 250.544L727.841 269.66C727.049 269.156 725.969 268.76 724.601 268.472C723.305 268.112 721.937 267.932 720.497 267.932C718.913 267.932 717.437 268.22 716.069 268.796C714.701 269.3 713.549 270.056 712.613 271.064C711.677 272.072 710.921 273.26 710.345 274.628C709.841 275.996 709.589 277.544 709.589 279.272V308H692.201ZM766.248 309.08C759.912 309.08 754.404 307.82 749.724 305.3C745.044 302.708 741.408 299.216 738.816 294.824C736.224 290.36 734.928 285.284 734.928 279.596C734.928 275.204 735.648 271.172 737.088 267.5C738.528 263.828 740.544 260.66 743.136 257.996C745.728 255.26 748.788 253.172 752.316 251.732C755.916 250.22 759.84 249.464 764.088 249.464C768.12 249.464 771.792 250.184 775.104 251.624C778.488 253.064 781.404 255.08 783.852 257.672C786.3 260.264 788.172 263.324 789.468 266.852C790.764 270.38 791.34 274.232 791.196 278.408L791.088 283.052H745.404L742.92 273.332H777.048L775.212 275.384V273.224C775.068 271.424 774.492 269.84 773.484 268.472C772.548 267.032 771.288 265.916 769.704 265.124C768.12 264.332 766.32 263.936 764.304 263.936C761.496 263.936 759.084 264.512 757.068 265.664C755.124 266.744 753.648 268.364 752.64 270.524C751.632 272.612 751.128 275.204 751.128 278.3C751.128 281.468 751.776 284.24 753.072 286.616C754.44 288.92 756.384 290.72 758.904 292.016C761.496 293.312 764.556 293.96 768.084 293.96C770.532 293.96 772.692 293.6 774.564 292.88C776.508 292.16 778.596 290.936 780.828 289.208L788.928 300.656C786.696 302.6 784.32 304.184 781.8 305.408C779.28 306.632 776.688 307.532 774.024 308.108C771.432 308.756 768.84 309.08 766.248 309.08ZM260.049 444V384.6H237.585V368.4H301.413V384.6H278.409V444H260.049ZM328.809 445.08C322.833 445.08 317.505 443.784 312.825 441.192C308.217 438.6 304.545 435.072 301.809 430.608C299.145 426.144 297.813 421.032 297.813 415.272C297.813 409.512 299.145 404.4 301.809 399.936C304.545 395.472 308.217 391.944 312.825 389.352C317.505 386.76 322.833 385.464 328.809 385.464C334.785 385.464 340.077 386.76 344.685 389.352C349.365 391.944 353.037 395.472 355.701 399.936C358.365 404.4 359.697 409.512 359.697 415.272C359.697 421.032 358.365 426.144 355.701 430.608C353.037 435.072 349.365 438.6 344.685 441.192C340.077 443.784 334.785 445.08 328.809 445.08ZM328.809 430.176C331.401 430.176 333.705 429.528 335.721 428.232C337.737 426.936 339.321 425.172 340.473 422.94C341.625 420.708 342.165 418.152 342.093 415.272C342.165 412.392 341.625 409.836 340.473 407.604C339.321 405.3 337.737 403.5 335.721 402.204C333.705 400.908 331.401 400.26 328.809 400.26C326.217 400.26 323.877 400.908 321.789 402.204C319.773 403.5 318.189 405.3 317.037 407.604C315.885 409.836 315.345 412.392 315.417 415.272C315.345 418.152 315.885 420.708 317.037 422.94C318.189 425.172 319.773 426.936 321.789 428.232C323.877 429.528 326.217 430.176 328.809 430.176ZM397.24 468.84C392.56 468.84 387.88 468.156 383.2 466.788C378.592 465.42 374.848 463.656 371.968 461.496L378.016 449.4C379.528 450.408 381.184 451.272 382.984 451.992C384.856 452.784 386.8 453.396 388.816 453.828C390.832 454.26 392.884 454.476 394.972 454.476C398.644 454.476 401.632 453.936 403.936 452.856C406.24 451.776 407.968 450.12 409.12 447.888C410.272 445.728 410.848 442.992 410.848 439.68V430.068L414.196 430.608C413.692 432.984 412.432 435.144 410.416 437.088C408.472 439.032 406.06 440.616 403.18 441.84C400.3 442.992 397.24 443.568 394 443.568C388.816 443.568 384.172 442.38 380.068 440.004C376.036 437.556 372.832 434.208 370.456 429.96C368.152 425.64 367 420.672 367 415.056C367 409.296 368.152 404.22 370.456 399.828C372.76 395.364 375.928 391.872 379.96 389.352C383.992 386.76 388.528 385.464 393.568 385.464C395.728 385.464 397.78 385.716 399.724 386.22C401.74 386.724 403.576 387.408 405.232 388.272C406.96 389.064 408.472 390.036 409.768 391.188C411.136 392.268 412.216 393.456 413.008 394.752C413.872 396.048 414.448 397.38 414.736 398.748L411.172 399.612L411.82 386.652H428.236V439.356C428.236 444.036 427.516 448.176 426.076 451.776C424.708 455.448 422.656 458.544 419.92 461.064C417.256 463.656 414.016 465.6 410.2 466.896C406.384 468.192 402.064 468.84 397.24 468.84ZM397.672 430.176C400.48 430.176 402.892 429.564 404.908 428.34C406.996 427.044 408.58 425.28 409.66 423.048C410.812 420.816 411.388 418.188 411.388 415.164C411.388 412.14 410.812 409.512 409.66 407.28C408.58 404.976 406.996 403.212 404.908 401.988C402.892 400.692 400.48 400.044 397.672 400.044C394.936 400.044 392.56 400.692 390.544 401.988C388.528 403.212 386.944 404.976 385.792 407.28C384.712 409.512 384.172 412.14 384.172 415.164C384.172 418.188 384.712 420.816 385.792 423.048C386.944 425.28 388.528 427.044 390.544 428.34C392.56 429.564 394.936 430.176 397.672 430.176ZM470.566 445.08C464.23 445.08 458.722 443.82 454.042 441.3C449.362 438.708 445.726 435.216 443.134 430.824C440.542 426.36 439.246 421.284 439.246 415.596C439.246 411.204 439.966 407.172 441.406 403.5C442.846 399.828 444.862 396.66 447.454 393.996C450.046 391.26 453.106 389.172 456.634 387.732C460.234 386.22 464.158 385.464 468.406 385.464C472.438 385.464 476.11 386.184 479.422 387.624C482.806 389.064 485.722 391.08 488.17 393.672C490.618 396.264 492.49 399.324 493.786 402.852C495.082 406.38 495.658 410.232 495.514 414.408L495.406 419.052H449.722L447.238 409.332H481.366L479.53 411.384V409.224C479.386 407.424 478.81 405.84 477.802 404.472C476.866 403.032 475.606 401.916 474.022 401.124C472.438 400.332 470.638 399.936 468.622 399.936C465.814 399.936 463.402 400.512 461.386 401.664C459.442 402.744 457.966 404.364 456.958 406.524C455.95 408.612 455.446 411.204 455.446 414.3C455.446 417.468 456.094 420.24 457.39 422.616C458.758 424.92 460.702 426.72 463.222 428.016C465.814 429.312 468.874 429.96 472.402 429.96C474.85 429.96 477.01 429.6 478.882 428.88C480.826 428.16 482.914 426.936 485.146 425.208L493.246 436.656C491.014 438.6 488.638 440.184 486.118 441.408C483.598 442.632 481.006 443.532 478.342 444.108C475.75 444.756 473.158 445.08 470.566 445.08ZM511.275 444V372.18H528.555V444H511.275ZM501.123 401.772V386.652H539.679V401.772H501.123ZM549.555 444V364.08H566.511V398.316L563.055 399.612C563.847 397.02 565.251 394.68 567.267 392.592C569.355 390.432 571.839 388.704 574.719 387.408C577.599 386.112 580.623 385.464 583.791 385.464C588.111 385.464 591.747 386.364 594.699 388.164C597.651 389.892 599.883 392.52 601.395 396.048C602.907 399.504 603.663 403.752 603.663 408.792V444H586.275V410.196C586.275 407.892 585.951 405.984 585.303 404.472C584.655 402.96 583.647 401.844 582.279 401.124C580.983 400.332 579.363 399.972 577.419 400.044C575.907 400.044 574.503 400.296 573.207 400.8C571.911 401.232 570.795 401.916 569.859 402.852C568.923 403.716 568.167 404.724 567.591 405.876C567.087 407.028 566.835 408.288 566.835 409.656V444H558.303C556.287 444 554.559 444 553.119 444C551.679 444 550.491 444 549.555 444ZM645.433 445.08C639.097 445.08 633.589 443.82 628.909 441.3C624.229 438.708 620.593 435.216 618.001 430.824C615.409 426.36 614.113 421.284 614.113 415.596C614.113 411.204 614.833 407.172 616.273 403.5C617.713 399.828 619.729 396.66 622.321 393.996C624.913 391.26 627.973 389.172 631.501 387.732C635.101 386.22 639.025 385.464 643.273 385.464C647.305 385.464 650.977 386.184 654.289 387.624C657.673 389.064 660.589 391.08 663.037 393.672C665.485 396.264 667.357 399.324 668.653 402.852C669.949 406.38 670.525 410.232 670.381 414.408L670.273 419.052H624.589L622.105 409.332H656.233L654.397 411.384V409.224C654.253 407.424 653.677 405.84 652.669 404.472C651.733 403.032 650.473 401.916 648.889 401.124C647.305 400.332 645.505 399.936 643.489 399.936C640.681 399.936 638.269 400.512 636.253 401.664C634.309 402.744 632.833 404.364 631.825 406.524C630.817 408.612 630.313 411.204 630.313 414.3C630.313 417.468 630.961 420.24 632.257 422.616C633.625 424.92 635.569 426.72 638.089 428.016C640.681 429.312 643.741 429.96 647.269 429.96C649.717 429.96 651.877 429.6 653.749 428.88C655.693 428.16 657.781 426.936 660.013 425.208L668.113 436.656C665.881 438.6 663.505 440.184 660.985 441.408C658.465 442.632 655.873 443.532 653.209 444.108C650.617 444.756 648.025 445.08 645.433 445.08ZM681.391 444V386.652H697.807L698.563 405.336L695.323 401.772C696.187 398.676 697.591 395.904 699.535 393.456C701.551 391.008 703.891 389.064 706.555 387.624C709.219 386.184 712.063 385.464 715.087 385.464C716.383 385.464 717.571 385.572 718.651 385.788C719.803 386.004 720.847 386.256 721.783 386.544L717.031 405.66C716.239 405.156 715.159 404.76 713.791 404.472C712.495 404.112 711.127 403.932 709.687 403.932C708.103 403.932 706.627 404.22 705.259 404.796C703.891 405.3 702.739 406.056 701.803 407.064C700.867 408.072 700.111 409.26 699.535 410.628C699.031 411.996 698.779 413.544 698.779 415.272V444H681.391Z" fill="#171717"/>
<path d="M206.419 309.08C200.659 309.08 195.403 308.108 190.651 306.164C185.899 304.22 181.759 301.484 178.231 297.956C174.703 294.428 171.967 290.288 170.023 285.536C168.079 280.784 167.107 275.564 167.107 269.876C167.107 264.188 168.079 258.968 170.023 254.216C171.967 249.464 174.703 245.324 178.231 241.796C181.759 238.268 185.899 235.532 190.651 233.588C195.403 231.644 200.623 230.672 206.311 230.672C211.999 230.672 217.219 231.644 221.971 233.588C226.723 235.532 230.863 238.268 234.391 241.796C237.919 245.324 240.619 249.464 242.491 254.216C244.435 258.968 245.407 264.188 245.407 269.876C245.407 275.492 244.435 280.712 242.491 285.536C240.619 290.288 237.919 294.428 234.391 297.956C230.863 301.484 226.723 304.22 221.971 306.164C217.219 308.108 212.035 309.08 206.419 309.08ZM206.311 291.8C209.263 291.8 211.963 291.26 214.411 290.18C216.931 289.1 219.091 287.588 220.891 285.644C222.763 283.628 224.203 281.288 225.211 278.624C226.219 275.96 226.723 273.044 226.723 269.876C226.723 266.708 226.219 263.792 225.211 261.128C224.203 258.464 222.763 256.16 220.891 254.216C219.091 252.2 216.931 250.652 214.411 249.572C211.963 248.492 209.263 247.952 206.311 247.952C203.359 247.952 200.623 248.492 198.103 249.572C195.655 250.652 193.495 252.2 191.623 254.216C189.751 256.16 188.311 258.464 187.303 261.128C186.367 263.792 185.899 266.708 185.899 269.876C185.899 273.044 186.367 275.996 187.303 278.732C188.311 281.396 189.751 283.7 191.623 285.644C193.495 287.588 195.655 289.1 198.103 290.18C200.623 291.26 203.359 291.8 206.311 291.8ZM277.323 309.188C273.075 309.188 269.439 308.288 266.415 306.488C263.463 304.616 261.159 301.952 259.503 298.496C257.919 295.04 257.127 290.9 257.127 286.076V250.652H274.515V283.7C274.515 286.004 274.875 287.984 275.595 289.64C276.315 291.296 277.395 292.592 278.835 293.528C280.275 294.392 282.003 294.824 284.019 294.824C285.531 294.824 286.899 294.572 288.123 294.068C289.419 293.564 290.499 292.88 291.363 292.016C292.299 291.08 293.019 290.036 293.523 288.884C294.027 287.66 294.279 286.328 294.279 284.888V250.652H311.667V308H295.359L294.603 296.228L297.843 294.932C296.979 297.668 295.539 300.116 293.523 302.276C291.507 304.364 289.095 306.056 286.287 307.352C283.479 308.576 280.491 309.188 277.323 309.188ZM327.068 308V250.652H343.484L344.24 269.336L341 265.772C341.864 262.676 343.268 259.904 345.212 257.456C347.228 255.008 349.568 253.064 352.232 251.624C354.896 250.184 357.74 249.464 360.764 249.464C362.06 249.464 363.248 249.572 364.328 249.788C365.48 250.004 366.524 250.256 367.46 250.544L362.708 269.66C361.916 269.156 360.836 268.76 359.468 268.472C358.172 268.112 356.804 267.932 355.364 267.932C353.78 267.932 352.304 268.22 350.936 268.796C349.568 269.3 348.416 270.056 347.48 271.064C346.544 272.072 345.788 273.26 345.212 274.628C344.708 275.996 344.456 277.544 344.456 279.272V308H327.068Z" fill="white"/>
<path fill-rule="evenodd" clip-rule="evenodd" d="M114.051 27.9658C114.028 27.4781 114.032 27.0033 114.055 26.5576C114.134 25.2173 115.38 25.2219 115.476 25.2238C115.679 25.2284 116.584 25.2856 116.801 26.3306C116.815 26.3929 116.847 26.8442 116.856 27.0181C116.875 27.389 116.884 27.7536 116.833 28.1194C116.879 28.74 116.981 29.3785 117.174 29.9793C117.456 30.866 117.913 31.6845 118.738 32.1205C120.215 32.9049 122.157 32.8731 123.781 33.0724C124.46 33.1554 124.976 33.7211 124.999 34.4039C125.018 35.0872 124.538 35.6833 123.864 35.8075C121.834 36.183 119.5 38.029 118.014 39.5156C117.557 39.9724 117.045 41.0603 116.473 41.757C116.012 42.3153 115.5 42.6895 115.015 42.838C114.826 42.8957 113.779 43.1061 113.308 42.0219C113.179 41.7173 112.722 40.1228 112.68 39.941C112.431 38.8992 112.076 37.9686 111.379 37.1399C110.775 36.4216 110.041 35.7941 109.16 35.4462C108.805 35.3059 108.436 35.1994 108.067 35.0896C107.937 35.0739 107.573 35.0277 107.444 34.9839C107.181 34.8962 106.987 34.7588 106.849 34.6217C106.586 34.3624 106.452 34.0528 106.429 33.7003C106.41 33.4678 106.443 33.1919 106.609 32.886C106.733 32.6687 107.015 32.3415 107.522 32.1293C108.053 31.9074 109.192 31.6965 109.395 31.6416C110.807 31.2614 112.191 30.6833 113.276 29.6812C113.816 29.1802 113.94 28.6399 114.051 27.9658ZM114.955 31.8894C115.5 33.018 116.312 33.9679 117.442 34.5664C117.908 34.815 118.416 35.0037 118.941 35.1505C117.857 35.9053 116.851 36.7634 116.053 37.5589C115.795 37.8177 115.513 38.2367 115.214 38.6967C114.863 37.4684 114.346 36.3653 113.497 35.3558C112.994 34.7606 112.427 34.2166 111.795 33.7631C112.939 33.31 114.023 32.7037 114.955 31.8894Z" fill="#35312B"/>
<path fill-rule="evenodd" clip-rule="evenodd" d="M85.2097 67.1703C95.7108 67.4241 106.443 66.912 116.482 70.5015C117.202 70.7599 117.996 70.3816 118.254 69.6664C118.513 68.9467 118.134 68.1531 117.414 67.8947C107.093 64.2036 96.0707 64.6604 85.2789 64.402C84.513 64.3836 83.8809 64.988 83.8625 65.7493C83.844 66.5152 84.4484 67.1473 85.2097 67.1703Z" fill="#35312B"/>
<path fill-rule="evenodd" clip-rule="evenodd" d="M84.4298 51.8298C87.6825 48.8377 91.2306 46.594 95.5214 45.483C96.2597 45.2915 96.7026 44.5357 96.5134 43.7961C96.3197 43.0565 95.5676 42.6118 94.8248 42.8032C90.0818 44.031 86.1507 46.4856 82.5565 49.7918C81.9936 50.3091 81.9567 51.1852 82.4735 51.7476C82.9902 52.3101 83.8669 52.347 84.4298 51.8298Z" fill="#35312B"/>
<path fill-rule="evenodd" clip-rule="evenodd" d="M75.368 18.771C76.8583 13.6704 79.7881 9.67986 84.2774 6.79851C84.9188 6.38604 85.1079 5.52877 84.6926 4.88607C84.282 4.2429 83.4238 4.05604 82.7825 4.46898C77.7072 7.72497 74.3945 12.2313 72.7105 17.9954C72.4982 18.7285 72.9181 19.4976 73.6517 19.7117C74.3853 19.9258 75.1558 19.5041 75.368 18.771Z" fill="#35312B"/>
<path fill-rule="evenodd" clip-rule="evenodd" d="M23.0379 11.6778C22.1705 12.7085 21.3953 13.8159 20.7309 14.9924C20.3434 15.6711 19.6605 17.2518 19.7759 18.3965C19.8635 19.2542 20.2695 19.9518 21.0816 20.3634C22.3781 21.0222 23.4162 20.9415 24.2144 20.5433C24.9803 20.1622 25.5893 19.4194 25.9676 18.4159C26.6413 16.6243 26.5629 13.916 26.2214 12.2845C27.1442 11.3438 28.1546 10.4884 29.2297 9.72523C37.4977 3.86427 49.6275 6.05399 58.9614 14.8175C62.2326 17.8876 63.7875 24.3419 64.6042 31.2982C65.8914 42.2136 65.1578 54.4047 65.0563 57.9763C65.0333 58.9161 65.1348 59.4735 65.1809 59.5847C65.4393 60.1988 65.9007 60.3603 66.219 60.4202C66.6666 60.5033 67.0218 60.4157 67.3125 60.2634C67.7001 60.0604 68.023 59.7042 68.1707 59.1496C68.2445 58.8663 68.2675 58.4728 68.2583 58.0524C68.2491 57.8038 68.1891 57.5325 68.2399 57.3544C68.5998 56.1026 69.0334 54.8795 69.4533 53.6485C70.8651 49.5076 72.6969 45.6274 74.7223 41.7513C81.1771 29.4277 87.4059 16.4024 97.9854 7.01322C98.5576 6.50616 98.6129 5.63092 98.1054 5.05927C97.5979 4.48807 96.7213 4.43593 96.1491 4.94299C85.3158 14.5555 78.8748 27.8502 72.2724 40.4677C70.736 43.3993 69.3149 46.3351 68.0922 49.377C68.203 42.5093 68.0369 33.2028 66.5097 25.5216C65.4254 20.0441 63.6122 15.3823 60.8577 12.7994C50.4442 3.02272 36.8518 0.928013 27.6287 7.46675C26.7197 8.10992 25.857 8.81216 25.0403 9.56976C20.1404 1.01293 9.88377 -2.38194 0.808304 1.75991C0.116225 2.07734 -0.192895 2.89905 0.125462 3.5939C0.443818 4.28874 1.26507 4.59555 1.95715 4.27812C9.95759 0.627646 19.0192 3.84766 23.0379 11.6778ZM23.7484 15.3541C23.5362 15.6812 23.3332 16.0153 23.1394 16.3562C23.001 16.5952 22.7933 17.0114 22.6503 17.4562C22.6042 17.6107 22.5673 17.8539 22.5488 18.0025C22.7195 18.0837 22.8579 18.1261 22.9825 18.0648C23.1855 17.9628 23.2732 17.7085 23.3747 17.4396C23.6007 16.8402 23.7161 16.0942 23.7484 15.3541Z" fill="#35312B"/>
<path d="M945.392 562.077C945.392 601.029 903.483 632.607 864.53 632.607C825.577 632.607 794 601.029 794 562.077C794 523.124 807.954 488.039 846.906 488.039C885.859 488.039 945.392 523.124 945.392 562.077Z" fill="#FFCB3C"/>
<mask id="mask0_220_5" style="mask-type:alpha" maskUnits="userSpaceOnUse" x="794" y="439" width="176" height="194">
<path d="M935.06 562.077C935.06 601.03 903.483 632.607 864.53 632.607C825.577 632.607 794 601.03 794 562.077C794 523.124 917.98 439 956.932 439C995.885 439 935.06 523.124 935.06 562.077Z" fill="#FFCB3C"/>
</mask>
<g mask="url(#mask0_220_5)">
<path fill-rule="evenodd" clip-rule="evenodd" d="M856.128 552.635C851.768 550.805 846.842 550.441 841.413 552.03C822.873 557.456 815.281 571.903 814.265 589.114C812.843 613.304 824.911 643.083 835.72 657.879C836.983 659.608 839.409 659.984 841.138 658.724C842.862 657.461 843.242 655.035 841.979 653.306C831.957 639.587 820.683 612.002 822.005 589.571C822.819 575.697 828.647 563.842 843.591 559.467C846.823 558.521 849.764 558.653 852.411 559.583C851.551 561.308 850.729 563.036 849.95 564.765C846.838 571.686 842.188 590.904 843.924 605.034C845.3 616.215 850.582 624.233 861.48 623.938C867.719 623.772 872.323 620.001 875.086 613.82C878.493 606.197 878.958 594.536 876.563 583.355C874.575 574.058 870.629 565.137 865.095 559.138C864.32 558.297 863.514 557.51 862.681 556.781C880.849 524.573 913.639 494.686 947.305 481.955C949.304 481.199 950.312 478.963 949.556 476.959C948.8 474.96 946.561 473.952 944.561 474.708C909.446 487.985 875.218 519.062 856.128 552.635ZM858.922 563.9C858.263 565.245 857.627 566.594 857.023 567.943C854.229 574.155 850.059 591.404 851.617 604.089C852.442 610.801 854.733 616.366 861.274 616.191C864.483 616.106 866.591 613.835 868.01 610.657C869.893 606.445 870.564 600.732 870.265 594.652C869.796 585.219 866.948 574.895 861.933 567.594C861.007 566.245 860.003 565.001 858.922 563.9Z" fill="#35312B"/>
<path fill-rule="evenodd" clip-rule="evenodd" d="M921.355 530.428C924.378 512.798 935.938 494.041 948.359 481.043C949.835 479.497 949.781 477.044 948.235 475.563C946.688 474.087 944.231 474.141 942.755 475.687C929.334 489.736 916.979 510.07 913.716 529.118C913.356 531.226 914.774 533.229 916.883 533.59C918.991 533.95 920.994 532.536 921.355 530.428Z" fill="#35312B"/>
<path fill-rule="evenodd" clip-rule="evenodd" d="M943.088 474.947C930.319 482.237 910.732 483.19 896.455 479.493C894.382 478.958 892.266 480.206 891.731 482.275C891.196 484.345 892.44 486.461 894.514 487C910.566 491.15 932.574 489.875 946.933 481.679C948.789 480.621 949.436 478.249 948.374 476.392C947.312 474.536 944.945 473.889 943.088 474.947Z" fill="#35312B"/>
</g>
<path fill-rule="evenodd" clip-rule="evenodd" d="M976.229 456.881C976.192 456.095 976.199 455.329 976.236 454.61C976.363 452.447 978.373 452.455 978.529 452.458C978.856 452.465 980.315 452.557 980.665 454.243C980.688 454.344 980.74 455.072 980.755 455.352C980.784 455.951 980.799 456.539 980.717 457.129C980.792 458.13 980.956 459.161 981.268 460.13C981.722 461.56 982.459 462.881 983.791 463.584C986.173 464.85 989.307 464.798 991.927 465.12C993.021 465.254 993.855 466.166 993.892 467.268C993.922 468.37 993.148 469.332 992.061 469.532C988.786 470.138 985.02 473.116 982.623 475.515C981.886 476.251 981.06 478.007 980.137 479.131C979.392 480.031 978.566 480.635 977.785 480.875C977.479 480.968 975.79 481.307 975.03 479.558C974.822 479.067 974.085 476.494 974.018 476.201C973.616 474.52 973.043 473.019 971.919 471.682C970.944 470.523 969.761 469.511 968.339 468.949C967.766 468.723 967.17 468.551 966.575 468.374C966.366 468.349 965.778 468.274 965.57 468.204C965.146 468.062 964.833 467.84 964.61 467.619C964.185 467.201 963.969 466.702 963.932 466.133C963.902 465.758 963.955 465.313 964.223 464.819C964.424 464.468 964.878 463.941 965.696 463.598C966.552 463.24 968.391 462.9 968.718 462.812C970.996 462.198 973.229 461.266 974.978 459.649C975.849 458.841 976.05 457.969 976.229 456.881ZM977.688 463.211C978.566 465.032 979.876 466.565 981.7 467.53C982.452 467.931 983.27 468.236 984.119 468.472C982.37 469.69 980.747 471.075 979.459 472.358C979.042 472.775 978.588 473.451 978.105 474.193C977.539 472.212 976.705 470.432 975.336 468.804C974.524 467.843 973.609 466.966 972.589 466.234C974.435 465.503 976.184 464.525 977.688 463.211Z" fill="#35312B"/>
<path fill-rule="evenodd" clip-rule="evenodd" d="M959.884 134.246C964.089 135.157 968.24 136.096 972.469 136.884C973.378 137.057 974.248 136.463 974.417 135.559C974.59 134.65 973.99 133.776 973.086 133.607C968.881 132.82 964.765 131.89 960.589 130.984C959.687 130.791 958.799 131.364 958.605 132.258C958.412 133.16 958.981 134.053 959.884 134.246Z" fill="black"/>
<path fill-rule="evenodd" clip-rule="evenodd" d="M949.05 100.354C960.963 93.8051 972.538 86.6577 984.303 79.8585C985.102 79.3942 985.372 78.3747 984.913 77.58C984.449 76.7814 983.434 76.5053 982.63 76.9657C970.887 83.7567 959.335 90.896 947.443 97.4278C946.632 97.8749 946.341 98.8878 946.783 99.6946C947.23 100.505 948.243 100.796 949.05 100.354Z" fill="black"/>
<path fill-rule="evenodd" clip-rule="evenodd" d="M911.591 68.7476C916.86 58.5336 921.85 48.1564 927.233 38.0017C927.659 37.1879 927.349 36.1799 926.539 35.7485C925.724 35.3132 924.712 35.6284 924.281 36.4382C918.896 46.6077 913.897 56.9957 908.626 67.2243C908.205 68.0421 908.524 69.0487 909.342 69.4694C910.165 69.894 911.166 69.5707 911.591 68.7476Z" fill="black"/>
</svg>
