<?xml version="1.0" standalone="no"?>
<!DOCTYPE svg PUBLIC "-//W3C//DTD SVG 20010904//EN"
 "http://www.w3.org/TR/2001/REC-SVG-20010904/DTD/svg10.dtd">
<svg version="1.0" xmlns="http://www.w3.org/2000/svg"
 width="2550.000000pt" height="2550.000000pt" viewBox="0 0 2550.000000 2550.000000"
 preserveAspectRatio="xMidYMid meet">
<metadata>
Created by potrace 1.14, written by Peter Selinger 2001-2017
</metadata>
<g transform="translate(0.000000,2550.000000) scale(0.100000,-0.100000)"
fill="#000000" stroke="none">
<path d="M20695 16973 c-95 -21 -104 -23 -220 -53 -118 -31 -502 -128 -532
-135 -10 -2 -135 -34 -278 -71 -143 -36 -267 -67 -275 -69 -8 -2 -150 -38
-315 -80 -165 -42 -307 -78 -315 -80 -8 -2 -42 -11 -75 -20 -33 -9 -71 -19
-85 -21 -119 -22 -239 -73 -311 -131 -177 -145 -240 -406 -149 -618 45 -105
113 -178 253 -275 177 -121 406 -284 439 -312 l27 -23 -100 -120 c-55 -66
-108 -129 -117 -140 -10 -11 -48 -58 -86 -105 -71 -87 -230 -281 -464 -564
-161 -194 -177 -214 -281 -341 -46 -55 -97 -118 -116 -140 -18 -22 -143 -175
-279 -340 -136 -165 -254 -309 -264 -320 -9 -11 -45 -56 -81 -100 -36 -44 -68
-82 -71 -85 -3 -3 -24 -27 -45 -55 -22 -27 -42 -52 -45 -55 -3 -3 -70 -84
-149 -180 -78 -96 -152 -186 -164 -200 -12 -14 -51 -61 -87 -105 -35 -44 -72
-89 -82 -100 -14 -17 -142 -173 -313 -380 -72 -88 -297 -361 -313 -380 -9 -11
-52 -63 -94 -115 -245 -303 -441 -472 -778 -670 -118 -70 -382 -170 -545 -207
-80 -18 -105 -22 -155 -29 -25 -3 -61 -9 -80 -13 -57 -13 -408 -10 -495 4
-140 22 -158 25 -240 46 -97 25 -96 25 -115 31 -363 127 -595 264 -890 528
l-34 30 -593 -597 c-326 -329 -593 -602 -593 -607 0 -5 13 -21 29 -35 16 -14
53 -48 82 -74 30 -27 65 -59 79 -71 14 -13 72 -61 130 -107 459 -369 961 -627
1495 -768 106 -29 344 -78 375 -79 8 0 47 -5 87 -11 135 -20 228 -26 458 -26
226 0 380 9 514 30 140 22 171 27 211 36 25 6 56 13 70 15 47 8 225 57 335 92
736 234 1398 690 1938 1333 54 64 172 215 262 335 90 121 168 224 172 229 5 6
125 165 268 355 142 190 389 518 549 730 159 212 488 648 730 970 242 322 539
716 659 875 120 160 223 297 230 305 7 8 61 81 122 162 l109 146 29 -16 c16
-9 36 -24 45 -32 9 -9 49 -37 87 -63 39 -26 99 -69 135 -94 237 -169 334 -234
375 -253 148 -67 329 -59 472 22 118 67 204 170 247 299 23 67 25 86 20 204
-2 72 -6 147 -8 167 -3 20 -7 72 -10 115 -6 80 -10 128 -21 268 -8 93 -12 138
-20 255 -4 47 -8 101 -10 120 -2 19 -6 78 -10 130 -3 52 -8 109 -10 125 -3 17
-7 66 -10 110 -5 79 -10 141 -20 260 -2 33 -7 89 -10 125 -2 36 -8 99 -11 140
-9 100 -11 130 -18 230 -18 254 -26 289 -88 399 -63 109 -202 213 -324 242
-71 16 -170 18 -239 2z"/>
<path d="M14435 16477 c-34 -54 -101 -144 -156 -212 -83 -101 -224 -271 -263
-315 -27 -30 -74 -84 -105 -120 -109 -124 -126 -144 -156 -176 -16 -17 -45
-49 -64 -70 -38 -44 -171 -191 -216 -239 -16 -18 -68 -74 -115 -125 -94 -103
-94 -103 -235 -254 -55 -60 -115 -124 -134 -145 -43 -46 -148 -157 -331 -351
-80 -84 -161 -169 -180 -190 -46 -49 -359 -376 -435 -454 -569 -590 -502 -521
-1050 -1082 -209 -213 -706 -715 -1105 -1116 -399 -400 -767 -770 -818 -822
-190 -195 -383 -328 -642 -444 -47 -21 -241 -88 -282 -96 -213 -47 -320 -60
-498 -60 -111 1 -255 10 -268 18 -4 2 -29 7 -57 10 -27 3 -65 10 -83 15 -18 5
-35 10 -37 10 -21 2 -108 26 -205 56 -26 8 -95 37 -190 81 -144 66 -311 174
-439 284 -73 63 -197 188 -233 235 -12 17 -31 39 -41 50 -45 49 -160 235 -215
347 -86 176 -153 385 -178 553 -4 28 -9 57 -10 65 -5 23 -17 201 -17 235 3
143 14 271 34 370 5 28 11 59 13 70 11 58 55 209 73 255 4 8 7 17 8 20 36 95
109 243 164 334 105 171 278 370 431 496 80 66 258 185 325 217 28 13 57 28
65 33 112 70 403 155 640 187 71 10 368 10 445 1 406 -51 767 -207 1065 -463
63 -53 240 -236 240 -247 0 -10 -75 -156 -340 -663 -32 -60 -101 -195 -155
-300 -54 -104 -101 -194 -105 -200 -12 -17 -27 -89 -24 -120 5 -74 26 -118 77
-169 58 -58 119 -82 199 -79 80 4 128 35 235 151 54 59 121 131 148 161 28 30
61 66 75 81 14 15 66 71 115 125 50 54 101 110 115 125 14 15 63 69 110 120
121 133 123 135 224 244 156 170 299 325 376 409 25 27 61 66 80 87 19 20 73
79 120 130 47 52 94 103 105 115 18 19 157 170 260 284 22 24 49 52 59 62 19
18 19 20 3 55 -31 63 -178 284 -274 409 -19 24 -100 123 -128 155 -16 19 -100
105 -185 190 -159 160 -282 265 -456 389 -54 39 -103 74 -109 79 -38 30 -294
175 -410 232 -247 120 -545 228 -765 275 -8 2 -37 9 -65 15 -27 6 -59 13 -70
15 -11 2 -43 8 -71 13 -28 6 -73 13 -100 17 -27 3 -67 8 -89 11 -116 18 -284
28 -465 28 -140 0 -369 -11 -393 -19 -7 -2 -39 -6 -72 -9 -59 -6 -80 -9 -140
-21 -16 -3 -44 -8 -62 -10 -59 -9 -170 -34 -288 -65 -292 -77 -736 -265 -923
-391 -24 -16 -45 -29 -48 -29 -8 0 -206 -133 -228 -152 -11 -10 -23 -18 -27
-18 -4 0 -14 -6 -21 -12 -11 -11 -76 -64 -132 -108 -103 -81 -299 -269 -413
-396 -163 -184 -361 -458 -449 -624 -16 -30 -32 -57 -35 -60 -6 -5 -123 -240
-125 -249 0 -3 -11 -28 -23 -56 -77 -169 -170 -447 -197 -585 -3 -14 -9 -38
-14 -55 -5 -16 -17 -70 -26 -120 -9 -49 -17 -97 -19 -105 -1 -8 -6 -40 -10
-70 -3 -30 -8 -66 -10 -80 -2 -14 -7 -52 -11 -85 -11 -78 -11 -628 -1 -725 8
-76 10 -92 22 -165 3 -22 8 -53 10 -70 3 -26 38 -204 50 -257 12 -56 59 -218
91 -313 124 -380 342 -787 591 -1105 100 -128 338 -383 439 -470 419 -363 804
-588 1284 -752 116 -40 384 -112 451 -122 20 -3 42 -7 50 -10 8 -3 32 -7 54
-10 22 -3 49 -7 60 -9 11 -3 47 -8 80 -12 32 -4 67 -8 75 -10 47 -9 255 -19
405 -19 218 0 426 14 565 39 32 6 106 18 125 21 37 6 207 44 249 56 54 15 58
16 81 22 51 11 231 73 335 114 442 173 843 429 1189 757 123 116 1613 1606
1816 1816 242 249 619 640 676 700 24 26 114 120 200 210 86 90 171 180 189
199 18 19 87 93 154 164 66 70 136 145 155 165 18 20 63 68 100 106 64 69 221
239 277 300 15 17 72 79 128 139 56 61 108 117 116 126 8 9 53 59 100 111 47
52 98 108 115 125 16 18 41 45 54 60 21 24 281 317 385 434 17 19 60 69 96
110 36 41 77 89 91 105 75 85 118 135 154 179 22 27 45 54 50 60 6 6 44 51 85
101 41 49 83 99 93 110 46 49 373 463 464 585 158 213 275 391 315 480 45 98
55 132 41 128 -5 0 -15 2 -23 5 -19 8 -211 69 -680 217 -107 33 -206 65 -220
70 -26 9 -399 127 -510 161 -36 11 -74 24 -85 29 -60 25 -68 22 -110 -43z"/>
</g>
</svg>
